%TF.GenerationSoftware,KiCad,Pcbnew,9.0.7*%
%TF.CreationDate,2026-09-26T03:07:13-04:00*%
%TF.ProjectId,Design Challenge Watonomous,44657369-676e-4204-9368-616c6c656e67,rev?*%
%TF.SameCoordinates,Original*%
%TF.FileFunction,Copper,L2,Bot*%
%TF.FilePolarity,Positive*%
%FSLAX46Y46*%
G04 Gerber Fmt 4.6, Leading zero omitted, Abs format (unit mm)*
G04 Created by KiCad (PCBNEW 9.0.7) date 2026-09-26 03:07:13*
%MOMM*%
%LPD*%
G01*
G04 APERTURE LIST*
%TA.AperFunction,ComponentPad*%
%ADD10R,1.700000X1.700000*%
%TD*%
%TA.AperFunction,ComponentPad*%
%ADD11C,1.700000*%
%TD*%
%TA.AperFunction,ViaPad*%
%ADD12C,0.600000*%
%TD*%
G04 APERTURE END LIST*
D10*
%TO.P,J2,1,Pin_1*%
%TO.N,+3V3*%
X149250000Y-85525000D03*
D11*
%TO.P,J2,2,Pin_2*%
%TO.N,GND*%
X149250000Y-82985000D03*
%TD*%
D10*
%TO.P,J1,1,Pin_1*%
%TO.N,+5V*%
X129032000Y-82960000D03*
D11*
%TO.P,J1,2,Pin_2*%
%TO.N,GND*%
X129032000Y-85500000D03*
%TD*%
D12*
%TO.N,GND*%
X147066000Y-82550000D03*
X132334000Y-86360000D03*
X147000000Y-80000000D03*
X147000000Y-89000000D03*
%TD*%
%TA.AperFunction,Conductor*%
%TO.N,GND*%
G36*
X143875920Y-76600525D02*
G01*
X144016892Y-76603332D01*
X151866592Y-76759661D01*
X151933224Y-76780676D01*
X151977919Y-76834381D01*
X151988047Y-76879362D01*
X152249426Y-84458308D01*
X152249500Y-84462582D01*
X152249500Y-91125500D01*
X152229815Y-91192539D01*
X152177011Y-91238294D01*
X152125500Y-91249500D01*
X140316659Y-91249500D01*
X140314190Y-91249475D01*
X127101409Y-90986338D01*
X127034775Y-90965323D01*
X126990080Y-90911618D01*
X126979952Y-90866637D01*
X126840352Y-86818793D01*
X126722574Y-83403674D01*
X126722500Y-83399400D01*
X126722500Y-82062135D01*
X127681500Y-82062135D01*
X127681500Y-83857870D01*
X127681501Y-83857876D01*
X127687908Y-83917483D01*
X127738202Y-84052328D01*
X127738206Y-84052335D01*
X127824452Y-84167544D01*
X127824455Y-84167547D01*
X127939664Y-84253793D01*
X127939671Y-84253797D01*
X127984618Y-84270561D01*
X128074517Y-84304091D01*
X128134127Y-84310500D01*
X128144685Y-84310499D01*
X128211723Y-84330179D01*
X128232372Y-84346818D01*
X128902591Y-85017037D01*
X128839007Y-85034075D01*
X128724993Y-85099901D01*
X128631901Y-85192993D01*
X128566075Y-85307007D01*
X128549037Y-85370591D01*
X127916728Y-84738282D01*
X127916727Y-84738282D01*
X127877380Y-84792439D01*
X127780904Y-84981782D01*
X127715242Y-85183869D01*
X127715242Y-85183872D01*
X127682000Y-85393753D01*
X127682000Y-85606246D01*
X127715242Y-85816127D01*
X127715242Y-85816130D01*
X127780904Y-86018217D01*
X127877375Y-86207550D01*
X127916728Y-86261716D01*
X128549037Y-85629408D01*
X128566075Y-85692993D01*
X128631901Y-85807007D01*
X128724993Y-85900099D01*
X128839007Y-85965925D01*
X128902590Y-85982962D01*
X128270282Y-86615269D01*
X128270282Y-86615270D01*
X128324449Y-86654624D01*
X128513782Y-86751095D01*
X128715870Y-86816757D01*
X128925754Y-86850000D01*
X129138246Y-86850000D01*
X129348127Y-86816757D01*
X129348130Y-86816757D01*
X129550217Y-86751095D01*
X129739554Y-86654622D01*
X129793716Y-86615270D01*
X129793717Y-86615270D01*
X129161408Y-85982962D01*
X129224993Y-85965925D01*
X129339007Y-85900099D01*
X129432099Y-85807007D01*
X129497925Y-85692993D01*
X129514962Y-85629409D01*
X130147270Y-86261717D01*
X130147270Y-86261716D01*
X130186622Y-86207554D01*
X130283095Y-86018217D01*
X130348757Y-85816130D01*
X130348757Y-85816127D01*
X130382000Y-85606246D01*
X130382000Y-85393753D01*
X130348757Y-85183872D01*
X130348757Y-85183869D01*
X130283095Y-84981782D01*
X130186624Y-84792449D01*
X130147270Y-84738282D01*
X130147269Y-84738282D01*
X129514962Y-85370590D01*
X129497925Y-85307007D01*
X129432099Y-85192993D01*
X129339007Y-85099901D01*
X129224993Y-85034075D01*
X129161409Y-85017037D01*
X129551310Y-84627135D01*
X147899500Y-84627135D01*
X147899500Y-86422870D01*
X147899501Y-86422876D01*
X147905908Y-86482483D01*
X147956202Y-86617328D01*
X147956206Y-86617335D01*
X148042452Y-86732544D01*
X148042455Y-86732547D01*
X148157664Y-86818793D01*
X148157671Y-86818797D01*
X148292517Y-86869091D01*
X148292516Y-86869091D01*
X148299444Y-86869835D01*
X148352127Y-86875500D01*
X150147872Y-86875499D01*
X150207483Y-86869091D01*
X150342331Y-86818796D01*
X150457546Y-86732546D01*
X150543796Y-86617331D01*
X150594091Y-86482483D01*
X150600500Y-86422873D01*
X150600499Y-84627128D01*
X150594091Y-84567517D01*
X150543796Y-84432669D01*
X150543795Y-84432668D01*
X150543793Y-84432664D01*
X150457547Y-84317455D01*
X150457544Y-84317452D01*
X150342335Y-84231206D01*
X150342328Y-84231202D01*
X150207482Y-84180908D01*
X150207483Y-84180908D01*
X150147883Y-84174501D01*
X150147881Y-84174500D01*
X150147873Y-84174500D01*
X150147865Y-84174500D01*
X150137309Y-84174500D01*
X150070270Y-84154815D01*
X150049628Y-84138181D01*
X149379408Y-83467962D01*
X149442993Y-83450925D01*
X149557007Y-83385099D01*
X149650099Y-83292007D01*
X149715925Y-83177993D01*
X149732962Y-83114408D01*
X150365270Y-83746717D01*
X150365270Y-83746716D01*
X150404622Y-83692554D01*
X150501095Y-83503217D01*
X150566757Y-83301130D01*
X150566757Y-83301127D01*
X150600000Y-83091246D01*
X150600000Y-82878753D01*
X150566757Y-82668872D01*
X150566757Y-82668869D01*
X150501095Y-82466782D01*
X150404624Y-82277449D01*
X150365270Y-82223282D01*
X150365269Y-82223282D01*
X149732962Y-82855590D01*
X149715925Y-82792007D01*
X149650099Y-82677993D01*
X149557007Y-82584901D01*
X149442993Y-82519075D01*
X149379409Y-82502037D01*
X150011716Y-81869728D01*
X149957550Y-81830375D01*
X149768217Y-81733904D01*
X149566129Y-81668242D01*
X149356246Y-81635000D01*
X149143754Y-81635000D01*
X148933872Y-81668242D01*
X148933869Y-81668242D01*
X148731782Y-81733904D01*
X148542439Y-81830380D01*
X148488282Y-81869727D01*
X148488282Y-81869728D01*
X149120591Y-82502037D01*
X149057007Y-82519075D01*
X148942993Y-82584901D01*
X148849901Y-82677993D01*
X148784075Y-82792007D01*
X148767037Y-82855591D01*
X148134728Y-82223282D01*
X148134727Y-82223282D01*
X148095380Y-82277439D01*
X147998904Y-82466782D01*
X147933242Y-82668869D01*
X147933242Y-82668872D01*
X147900000Y-82878753D01*
X147900000Y-83091246D01*
X147933242Y-83301127D01*
X147933242Y-83301130D01*
X147998904Y-83503217D01*
X148095375Y-83692550D01*
X148134728Y-83746716D01*
X148767037Y-83114408D01*
X148784075Y-83177993D01*
X148849901Y-83292007D01*
X148942993Y-83385099D01*
X149057007Y-83450925D01*
X149120590Y-83467962D01*
X148450370Y-84138181D01*
X148389047Y-84171666D01*
X148362698Y-84174500D01*
X148352134Y-84174500D01*
X148352123Y-84174501D01*
X148292516Y-84180908D01*
X148157671Y-84231202D01*
X148157664Y-84231206D01*
X148042455Y-84317452D01*
X148042452Y-84317455D01*
X147956206Y-84432664D01*
X147956202Y-84432671D01*
X147905908Y-84567517D01*
X147899501Y-84627116D01*
X147899501Y-84627123D01*
X147899500Y-84627135D01*
X129551310Y-84627135D01*
X129831627Y-84346818D01*
X129892950Y-84313333D01*
X129919307Y-84310499D01*
X129929872Y-84310499D01*
X129989483Y-84304091D01*
X130124331Y-84253796D01*
X130239546Y-84167546D01*
X130325796Y-84052331D01*
X130376091Y-83917483D01*
X130382500Y-83857873D01*
X130382499Y-82062128D01*
X130376091Y-82002517D01*
X130325796Y-81867669D01*
X130325795Y-81867668D01*
X130325793Y-81867664D01*
X130239547Y-81752455D01*
X130239544Y-81752452D01*
X130124335Y-81666206D01*
X130124328Y-81666202D01*
X129989482Y-81615908D01*
X129989483Y-81615908D01*
X129929883Y-81609501D01*
X129929881Y-81609500D01*
X129929873Y-81609500D01*
X129929864Y-81609500D01*
X128134129Y-81609500D01*
X128134123Y-81609501D01*
X128074516Y-81615908D01*
X127939671Y-81666202D01*
X127939664Y-81666206D01*
X127824455Y-81752452D01*
X127824452Y-81752455D01*
X127738206Y-81867664D01*
X127738202Y-81867671D01*
X127687908Y-82002517D01*
X127681501Y-82062116D01*
X127681501Y-82062123D01*
X127681500Y-82062135D01*
X126722500Y-82062135D01*
X126722500Y-76724500D01*
X126742185Y-76657461D01*
X126794989Y-76611706D01*
X126846500Y-76600500D01*
X143873451Y-76600500D01*
X143875920Y-76600525D01*
G37*
%TD.AperFunction*%
%TD*%
M02*
