%TF.GenerationSoftware,KiCad,Pcbnew,9.0.7*%
%TF.CreationDate,2026-09-26T03:07:13-04:00*%
%TF.ProjectId,Design Challenge Watonomous,44657369-676e-4204-9368-616c6c656e67,rev?*%
%TF.SameCoordinates,Original*%
%TF.FileFunction,Legend,Top*%
%TF.FilePolarity,Positive*%
%FSLAX46Y46*%
G04 Gerber Fmt 4.6, Leading zero omitted, Abs format (unit mm)*
G04 Created by KiCad (PCBNEW 9.0.7) date 2026-09-26 03:07:13*
%MOMM*%
%LPD*%
G01*
G04 APERTURE LIST*
%ADD10C,0.150000*%
%ADD11C,0.120000*%
G04 APERTURE END LIST*
D10*
X148741541Y-87369819D02*
X149360588Y-87369819D01*
X149360588Y-87369819D02*
X149027255Y-87750771D01*
X149027255Y-87750771D02*
X149170112Y-87750771D01*
X149170112Y-87750771D02*
X149265350Y-87798390D01*
X149265350Y-87798390D02*
X149312969Y-87846009D01*
X149312969Y-87846009D02*
X149360588Y-87941247D01*
X149360588Y-87941247D02*
X149360588Y-88179342D01*
X149360588Y-88179342D02*
X149312969Y-88274580D01*
X149312969Y-88274580D02*
X149265350Y-88322200D01*
X149265350Y-88322200D02*
X149170112Y-88369819D01*
X149170112Y-88369819D02*
X148884398Y-88369819D01*
X148884398Y-88369819D02*
X148789160Y-88322200D01*
X148789160Y-88322200D02*
X148741541Y-88274580D01*
X149646303Y-87369819D02*
X149979636Y-88369819D01*
X149979636Y-88369819D02*
X150312969Y-87369819D01*
X150551065Y-87369819D02*
X151170112Y-87369819D01*
X151170112Y-87369819D02*
X150836779Y-87750771D01*
X150836779Y-87750771D02*
X150979636Y-87750771D01*
X150979636Y-87750771D02*
X151074874Y-87798390D01*
X151074874Y-87798390D02*
X151122493Y-87846009D01*
X151122493Y-87846009D02*
X151170112Y-87941247D01*
X151170112Y-87941247D02*
X151170112Y-88179342D01*
X151170112Y-88179342D02*
X151122493Y-88274580D01*
X151122493Y-88274580D02*
X151074874Y-88322200D01*
X151074874Y-88322200D02*
X150979636Y-88369819D01*
X150979636Y-88369819D02*
X150693922Y-88369819D01*
X150693922Y-88369819D02*
X150598684Y-88322200D01*
X150598684Y-88322200D02*
X150551065Y-88274580D01*
X148860588Y-80167438D02*
X148765350Y-80119819D01*
X148765350Y-80119819D02*
X148622493Y-80119819D01*
X148622493Y-80119819D02*
X148479636Y-80167438D01*
X148479636Y-80167438D02*
X148384398Y-80262676D01*
X148384398Y-80262676D02*
X148336779Y-80357914D01*
X148336779Y-80357914D02*
X148289160Y-80548390D01*
X148289160Y-80548390D02*
X148289160Y-80691247D01*
X148289160Y-80691247D02*
X148336779Y-80881723D01*
X148336779Y-80881723D02*
X148384398Y-80976961D01*
X148384398Y-80976961D02*
X148479636Y-81072200D01*
X148479636Y-81072200D02*
X148622493Y-81119819D01*
X148622493Y-81119819D02*
X148717731Y-81119819D01*
X148717731Y-81119819D02*
X148860588Y-81072200D01*
X148860588Y-81072200D02*
X148908207Y-81024580D01*
X148908207Y-81024580D02*
X148908207Y-80691247D01*
X148908207Y-80691247D02*
X148717731Y-80691247D01*
X149336779Y-81119819D02*
X149336779Y-80119819D01*
X149336779Y-80119819D02*
X149908207Y-81119819D01*
X149908207Y-81119819D02*
X149908207Y-80119819D01*
X150384398Y-81119819D02*
X150384398Y-80119819D01*
X150384398Y-80119819D02*
X150622493Y-80119819D01*
X150622493Y-80119819D02*
X150765350Y-80167438D01*
X150765350Y-80167438D02*
X150860588Y-80262676D01*
X150860588Y-80262676D02*
X150908207Y-80357914D01*
X150908207Y-80357914D02*
X150955826Y-80548390D01*
X150955826Y-80548390D02*
X150955826Y-80691247D01*
X150955826Y-80691247D02*
X150908207Y-80881723D01*
X150908207Y-80881723D02*
X150860588Y-80976961D01*
X150860588Y-80976961D02*
X150765350Y-81072200D01*
X150765350Y-81072200D02*
X150622493Y-81119819D01*
X150622493Y-81119819D02*
X150384398Y-81119819D01*
X130610588Y-87417438D02*
X130515350Y-87369819D01*
X130515350Y-87369819D02*
X130372493Y-87369819D01*
X130372493Y-87369819D02*
X130229636Y-87417438D01*
X130229636Y-87417438D02*
X130134398Y-87512676D01*
X130134398Y-87512676D02*
X130086779Y-87607914D01*
X130086779Y-87607914D02*
X130039160Y-87798390D01*
X130039160Y-87798390D02*
X130039160Y-87941247D01*
X130039160Y-87941247D02*
X130086779Y-88131723D01*
X130086779Y-88131723D02*
X130134398Y-88226961D01*
X130134398Y-88226961D02*
X130229636Y-88322200D01*
X130229636Y-88322200D02*
X130372493Y-88369819D01*
X130372493Y-88369819D02*
X130467731Y-88369819D01*
X130467731Y-88369819D02*
X130610588Y-88322200D01*
X130610588Y-88322200D02*
X130658207Y-88274580D01*
X130658207Y-88274580D02*
X130658207Y-87941247D01*
X130658207Y-87941247D02*
X130467731Y-87941247D01*
X131086779Y-88369819D02*
X131086779Y-87369819D01*
X131086779Y-87369819D02*
X131658207Y-88369819D01*
X131658207Y-88369819D02*
X131658207Y-87369819D01*
X132134398Y-88369819D02*
X132134398Y-87369819D01*
X132134398Y-87369819D02*
X132372493Y-87369819D01*
X132372493Y-87369819D02*
X132515350Y-87417438D01*
X132515350Y-87417438D02*
X132610588Y-87512676D01*
X132610588Y-87512676D02*
X132658207Y-87607914D01*
X132658207Y-87607914D02*
X132705826Y-87798390D01*
X132705826Y-87798390D02*
X132705826Y-87941247D01*
X132705826Y-87941247D02*
X132658207Y-88131723D01*
X132658207Y-88131723D02*
X132610588Y-88226961D01*
X132610588Y-88226961D02*
X132515350Y-88322200D01*
X132515350Y-88322200D02*
X132372493Y-88369819D01*
X132372493Y-88369819D02*
X132134398Y-88369819D01*
X131062969Y-79869819D02*
X130586779Y-79869819D01*
X130586779Y-79869819D02*
X130539160Y-80346009D01*
X130539160Y-80346009D02*
X130586779Y-80298390D01*
X130586779Y-80298390D02*
X130682017Y-80250771D01*
X130682017Y-80250771D02*
X130920112Y-80250771D01*
X130920112Y-80250771D02*
X131015350Y-80298390D01*
X131015350Y-80298390D02*
X131062969Y-80346009D01*
X131062969Y-80346009D02*
X131110588Y-80441247D01*
X131110588Y-80441247D02*
X131110588Y-80679342D01*
X131110588Y-80679342D02*
X131062969Y-80774580D01*
X131062969Y-80774580D02*
X131015350Y-80822200D01*
X131015350Y-80822200D02*
X130920112Y-80869819D01*
X130920112Y-80869819D02*
X130682017Y-80869819D01*
X130682017Y-80869819D02*
X130586779Y-80822200D01*
X130586779Y-80822200D02*
X130539160Y-80774580D01*
X131396303Y-79869819D02*
X131729636Y-80869819D01*
X131729636Y-80869819D02*
X132062969Y-79869819D01*
X145045833Y-80029580D02*
X144998214Y-80077200D01*
X144998214Y-80077200D02*
X144855357Y-80124819D01*
X144855357Y-80124819D02*
X144760119Y-80124819D01*
X144760119Y-80124819D02*
X144617262Y-80077200D01*
X144617262Y-80077200D02*
X144522024Y-79981961D01*
X144522024Y-79981961D02*
X144474405Y-79886723D01*
X144474405Y-79886723D02*
X144426786Y-79696247D01*
X144426786Y-79696247D02*
X144426786Y-79553390D01*
X144426786Y-79553390D02*
X144474405Y-79362914D01*
X144474405Y-79362914D02*
X144522024Y-79267676D01*
X144522024Y-79267676D02*
X144617262Y-79172438D01*
X144617262Y-79172438D02*
X144760119Y-79124819D01*
X144760119Y-79124819D02*
X144855357Y-79124819D01*
X144855357Y-79124819D02*
X144998214Y-79172438D01*
X144998214Y-79172438D02*
X145045833Y-79220057D01*
X145426786Y-79220057D02*
X145474405Y-79172438D01*
X145474405Y-79172438D02*
X145569643Y-79124819D01*
X145569643Y-79124819D02*
X145807738Y-79124819D01*
X145807738Y-79124819D02*
X145902976Y-79172438D01*
X145902976Y-79172438D02*
X145950595Y-79220057D01*
X145950595Y-79220057D02*
X145998214Y-79315295D01*
X145998214Y-79315295D02*
X145998214Y-79410533D01*
X145998214Y-79410533D02*
X145950595Y-79553390D01*
X145950595Y-79553390D02*
X145379167Y-80124819D01*
X145379167Y-80124819D02*
X145998214Y-80124819D01*
X134273580Y-84025166D02*
X134321200Y-84072785D01*
X134321200Y-84072785D02*
X134368819Y-84215642D01*
X134368819Y-84215642D02*
X134368819Y-84310880D01*
X134368819Y-84310880D02*
X134321200Y-84453737D01*
X134321200Y-84453737D02*
X134225961Y-84548975D01*
X134225961Y-84548975D02*
X134130723Y-84596594D01*
X134130723Y-84596594D02*
X133940247Y-84644213D01*
X133940247Y-84644213D02*
X133797390Y-84644213D01*
X133797390Y-84644213D02*
X133606914Y-84596594D01*
X133606914Y-84596594D02*
X133511676Y-84548975D01*
X133511676Y-84548975D02*
X133416438Y-84453737D01*
X133416438Y-84453737D02*
X133368819Y-84310880D01*
X133368819Y-84310880D02*
X133368819Y-84215642D01*
X133368819Y-84215642D02*
X133416438Y-84072785D01*
X133416438Y-84072785D02*
X133464057Y-84025166D01*
X134368819Y-83072785D02*
X134368819Y-83644213D01*
X134368819Y-83358499D02*
X133368819Y-83358499D01*
X133368819Y-83358499D02*
X133511676Y-83453737D01*
X133511676Y-83453737D02*
X133606914Y-83548975D01*
X133606914Y-83548975D02*
X133654533Y-83644213D01*
X146835905Y-90878819D02*
X146835905Y-89878819D01*
X146835905Y-89878819D02*
X147074000Y-89878819D01*
X147074000Y-89878819D02*
X147216857Y-89926438D01*
X147216857Y-89926438D02*
X147312095Y-90021676D01*
X147312095Y-90021676D02*
X147359714Y-90116914D01*
X147359714Y-90116914D02*
X147407333Y-90307390D01*
X147407333Y-90307390D02*
X147407333Y-90450247D01*
X147407333Y-90450247D02*
X147359714Y-90640723D01*
X147359714Y-90640723D02*
X147312095Y-90735961D01*
X147312095Y-90735961D02*
X147216857Y-90831200D01*
X147216857Y-90831200D02*
X147074000Y-90878819D01*
X147074000Y-90878819D02*
X146835905Y-90878819D01*
X148359714Y-90878819D02*
X147788286Y-90878819D01*
X148074000Y-90878819D02*
X148074000Y-89878819D01*
X148074000Y-89878819D02*
X147978762Y-90021676D01*
X147978762Y-90021676D02*
X147883524Y-90116914D01*
X147883524Y-90116914D02*
X147788286Y-90164533D01*
X137247333Y-91132819D02*
X136914000Y-90656628D01*
X136675905Y-91132819D02*
X136675905Y-90132819D01*
X136675905Y-90132819D02*
X137056857Y-90132819D01*
X137056857Y-90132819D02*
X137152095Y-90180438D01*
X137152095Y-90180438D02*
X137199714Y-90228057D01*
X137199714Y-90228057D02*
X137247333Y-90323295D01*
X137247333Y-90323295D02*
X137247333Y-90466152D01*
X137247333Y-90466152D02*
X137199714Y-90561390D01*
X137199714Y-90561390D02*
X137152095Y-90609009D01*
X137152095Y-90609009D02*
X137056857Y-90656628D01*
X137056857Y-90656628D02*
X136675905Y-90656628D01*
X137580667Y-90132819D02*
X138199714Y-90132819D01*
X138199714Y-90132819D02*
X137866381Y-90513771D01*
X137866381Y-90513771D02*
X138009238Y-90513771D01*
X138009238Y-90513771D02*
X138104476Y-90561390D01*
X138104476Y-90561390D02*
X138152095Y-90609009D01*
X138152095Y-90609009D02*
X138199714Y-90704247D01*
X138199714Y-90704247D02*
X138199714Y-90942342D01*
X138199714Y-90942342D02*
X138152095Y-91037580D01*
X138152095Y-91037580D02*
X138104476Y-91085200D01*
X138104476Y-91085200D02*
X138009238Y-91132819D01*
X138009238Y-91132819D02*
X137723524Y-91132819D01*
X137723524Y-91132819D02*
X137628286Y-91085200D01*
X137628286Y-91085200D02*
X137580667Y-91037580D01*
X135988095Y-88204819D02*
X135988095Y-89014342D01*
X135988095Y-89014342D02*
X136035714Y-89109580D01*
X136035714Y-89109580D02*
X136083333Y-89157200D01*
X136083333Y-89157200D02*
X136178571Y-89204819D01*
X136178571Y-89204819D02*
X136369047Y-89204819D01*
X136369047Y-89204819D02*
X136464285Y-89157200D01*
X136464285Y-89157200D02*
X136511904Y-89109580D01*
X136511904Y-89109580D02*
X136559523Y-89014342D01*
X136559523Y-89014342D02*
X136559523Y-88204819D01*
X137559523Y-89204819D02*
X136988095Y-89204819D01*
X137273809Y-89204819D02*
X137273809Y-88204819D01*
X137273809Y-88204819D02*
X137178571Y-88347676D01*
X137178571Y-88347676D02*
X137083333Y-88442914D01*
X137083333Y-88442914D02*
X136988095Y-88490533D01*
X148833333Y-78704819D02*
X148500000Y-78228628D01*
X148261905Y-78704819D02*
X148261905Y-77704819D01*
X148261905Y-77704819D02*
X148642857Y-77704819D01*
X148642857Y-77704819D02*
X148738095Y-77752438D01*
X148738095Y-77752438D02*
X148785714Y-77800057D01*
X148785714Y-77800057D02*
X148833333Y-77895295D01*
X148833333Y-77895295D02*
X148833333Y-78038152D01*
X148833333Y-78038152D02*
X148785714Y-78133390D01*
X148785714Y-78133390D02*
X148738095Y-78181009D01*
X148738095Y-78181009D02*
X148642857Y-78228628D01*
X148642857Y-78228628D02*
X148261905Y-78228628D01*
X149214286Y-77800057D02*
X149261905Y-77752438D01*
X149261905Y-77752438D02*
X149357143Y-77704819D01*
X149357143Y-77704819D02*
X149595238Y-77704819D01*
X149595238Y-77704819D02*
X149690476Y-77752438D01*
X149690476Y-77752438D02*
X149738095Y-77800057D01*
X149738095Y-77800057D02*
X149785714Y-77895295D01*
X149785714Y-77895295D02*
X149785714Y-77990533D01*
X149785714Y-77990533D02*
X149738095Y-78133390D01*
X149738095Y-78133390D02*
X149166667Y-78704819D01*
X149166667Y-78704819D02*
X149785714Y-78704819D01*
X139083333Y-78204819D02*
X138750000Y-77728628D01*
X138511905Y-78204819D02*
X138511905Y-77204819D01*
X138511905Y-77204819D02*
X138892857Y-77204819D01*
X138892857Y-77204819D02*
X138988095Y-77252438D01*
X138988095Y-77252438D02*
X139035714Y-77300057D01*
X139035714Y-77300057D02*
X139083333Y-77395295D01*
X139083333Y-77395295D02*
X139083333Y-77538152D01*
X139083333Y-77538152D02*
X139035714Y-77633390D01*
X139035714Y-77633390D02*
X138988095Y-77681009D01*
X138988095Y-77681009D02*
X138892857Y-77728628D01*
X138892857Y-77728628D02*
X138511905Y-77728628D01*
X140035714Y-78204819D02*
X139464286Y-78204819D01*
X139750000Y-78204819D02*
X139750000Y-77204819D01*
X139750000Y-77204819D02*
X139654762Y-77347676D01*
X139654762Y-77347676D02*
X139559524Y-77442914D01*
X139559524Y-77442914D02*
X139464286Y-77490533D01*
X147166666Y-87454819D02*
X147166666Y-88169104D01*
X147166666Y-88169104D02*
X147119047Y-88311961D01*
X147119047Y-88311961D02*
X147023809Y-88407200D01*
X147023809Y-88407200D02*
X146880952Y-88454819D01*
X146880952Y-88454819D02*
X146785714Y-88454819D01*
X147595238Y-87550057D02*
X147642857Y-87502438D01*
X147642857Y-87502438D02*
X147738095Y-87454819D01*
X147738095Y-87454819D02*
X147976190Y-87454819D01*
X147976190Y-87454819D02*
X148071428Y-87502438D01*
X148071428Y-87502438D02*
X148119047Y-87550057D01*
X148119047Y-87550057D02*
X148166666Y-87645295D01*
X148166666Y-87645295D02*
X148166666Y-87740533D01*
X148166666Y-87740533D02*
X148119047Y-87883390D01*
X148119047Y-87883390D02*
X147547619Y-88454819D01*
X147547619Y-88454819D02*
X148166666Y-88454819D01*
X128698666Y-78204819D02*
X128698666Y-78919104D01*
X128698666Y-78919104D02*
X128651047Y-79061961D01*
X128651047Y-79061961D02*
X128555809Y-79157200D01*
X128555809Y-79157200D02*
X128412952Y-79204819D01*
X128412952Y-79204819D02*
X128317714Y-79204819D01*
X129698666Y-79204819D02*
X129127238Y-79204819D01*
X129412952Y-79204819D02*
X129412952Y-78204819D01*
X129412952Y-78204819D02*
X129317714Y-78347676D01*
X129317714Y-78347676D02*
X129222476Y-78442914D01*
X129222476Y-78442914D02*
X129127238Y-78490533D01*
X145833333Y-87609580D02*
X145785714Y-87657200D01*
X145785714Y-87657200D02*
X145642857Y-87704819D01*
X145642857Y-87704819D02*
X145547619Y-87704819D01*
X145547619Y-87704819D02*
X145404762Y-87657200D01*
X145404762Y-87657200D02*
X145309524Y-87561961D01*
X145309524Y-87561961D02*
X145261905Y-87466723D01*
X145261905Y-87466723D02*
X145214286Y-87276247D01*
X145214286Y-87276247D02*
X145214286Y-87133390D01*
X145214286Y-87133390D02*
X145261905Y-86942914D01*
X145261905Y-86942914D02*
X145309524Y-86847676D01*
X145309524Y-86847676D02*
X145404762Y-86752438D01*
X145404762Y-86752438D02*
X145547619Y-86704819D01*
X145547619Y-86704819D02*
X145642857Y-86704819D01*
X145642857Y-86704819D02*
X145785714Y-86752438D01*
X145785714Y-86752438D02*
X145833333Y-86800057D01*
X146166667Y-86704819D02*
X146785714Y-86704819D01*
X146785714Y-86704819D02*
X146452381Y-87085771D01*
X146452381Y-87085771D02*
X146595238Y-87085771D01*
X146595238Y-87085771D02*
X146690476Y-87133390D01*
X146690476Y-87133390D02*
X146738095Y-87181009D01*
X146738095Y-87181009D02*
X146785714Y-87276247D01*
X146785714Y-87276247D02*
X146785714Y-87514342D01*
X146785714Y-87514342D02*
X146738095Y-87609580D01*
X146738095Y-87609580D02*
X146690476Y-87657200D01*
X146690476Y-87657200D02*
X146595238Y-87704819D01*
X146595238Y-87704819D02*
X146309524Y-87704819D01*
X146309524Y-87704819D02*
X146214286Y-87657200D01*
X146214286Y-87657200D02*
X146166667Y-87609580D01*
D11*
%TO.C,C2*%
X143317500Y-80445000D02*
X143317500Y-82055000D01*
X143317500Y-82055000D02*
X146212500Y-82055000D01*
X146212500Y-80445000D02*
X143317500Y-80445000D01*
%TO.C,C1*%
X133139000Y-81963500D02*
X131529000Y-81963500D01*
X131529000Y-81963500D02*
X131529000Y-84858500D01*
X133139000Y-84858500D02*
X133139000Y-81963500D01*
%TO.C,D1*%
X143500000Y-91130000D02*
X146360000Y-91130000D01*
X146360000Y-89210000D02*
X143500000Y-89210000D01*
X146360000Y-91130000D02*
X146360000Y-89210000D01*
%TO.C,R3*%
X140250936Y-90905000D02*
X140705064Y-90905000D01*
X140250936Y-89435000D02*
X140705064Y-89435000D01*
%TO.C,U1*%
X142660000Y-81650000D02*
X142660000Y-85410000D01*
X135840000Y-81650000D02*
X135840000Y-85410000D01*
X142660000Y-85410000D02*
X141400000Y-85410000D01*
X135840000Y-85410000D02*
X137100000Y-85410000D01*
X142890000Y-80610000D02*
X142560000Y-80370000D01*
X142890000Y-80130000D01*
X142890000Y-80610000D01*
G36*
X142890000Y-80610000D02*
G01*
X142560000Y-80370000D01*
X142890000Y-80130000D01*
X142890000Y-80610000D01*
G37*
%TO.C,R2*%
X146022936Y-77515000D02*
X146477064Y-77515000D01*
X146022936Y-78985000D02*
X146477064Y-78985000D01*
%TO.C,R1*%
X141772936Y-77015000D02*
X142227064Y-77015000D01*
X141772936Y-78485000D02*
X142227064Y-78485000D01*
%TO.C,J2*%
X150630000Y-86905000D02*
X149250000Y-86905000D01*
X150630000Y-85525000D02*
X150630000Y-86905000D01*
X150630000Y-84255000D02*
X150630000Y-81605000D01*
X150630000Y-84255000D02*
X147870000Y-84255000D01*
X150630000Y-81605000D02*
X147870000Y-81605000D01*
X147870000Y-84255000D02*
X147870000Y-81605000D01*
%TO.C,J1*%
X127652000Y-81580000D02*
X129032000Y-81580000D01*
X127652000Y-82960000D02*
X127652000Y-81580000D01*
X127652000Y-84230000D02*
X127652000Y-86880000D01*
X127652000Y-84230000D02*
X130412000Y-84230000D01*
X127652000Y-86880000D02*
X130412000Y-86880000D01*
X130412000Y-84230000D02*
X130412000Y-86880000D01*
%TO.C,C3*%
X145195000Y-86417500D02*
X146805000Y-86417500D01*
X146805000Y-86417500D02*
X146805000Y-83522500D01*
X145195000Y-83522500D02*
X145195000Y-86417500D01*
%TD*%
M02*
